<?xml version="1.0" standalone="no"?>
<svg viewBox="0 0 200 200" xmlns="http://www.w3.org/2000/svg">
  <path fill="#4095A0"
    d="M45.7,-80.1C58.4,-71.9,67.4,-58,74.8,-43.7C82.3,-29.4,88.4,-14.7,87.1,-0.7C85.9,13.2,77.4,26.5,67.6,36.8C57.8,47.2,46.8,54.6,35.4,60.8C23.9,67,12,72,-1.7,75C-15.4,78,-30.9,79.1,-44.6,74.2C-58.3,69.3,-70.4,58.4,-76.6,45.1C-82.9,31.7,-83.4,15.9,-82.4,0.6C-81.3,-14.6,-78.7,-29.3,-71.6,-41.3C-64.6,-53.3,-53.1,-62.7,-40.4,-70.9C-27.7,-79.1,-13.9,-86.2,1.3,-88.5C16.5,-90.8,33,-88.3,45.7,-80.1Z"
    transform="translate(100 100)" />
</svg>